<?xml version="1.0" encoding="utf-8"?>
<!-- Generator: Adobe Illustrator 19.0.0, SVG Export Plug-In . SVG Version: 6.00 Build 0)  -->
<svg version="1.1" id="Layer_1" xmlns="http://www.w3.org/2000/svg" xmlns:xlink="http://www.w3.org/1999/xlink" x="0px" y="0px"
	 width="300px" height="300px" viewBox="0 0 300 300" style="enable-background:new 0 0 300 300;" xml:space="preserve">
<style type="text/css">
	.st0{fill:#00CBA2;}
</style>
<g id="XMLID_27_">
	<path id="XMLID_52_" class="st0" d="M17.2755222,247.2205658c-5.2730131-2.0328369-9.9014931-5.0317993-13.7858505-8.7186584
		c-4.0331717-3.8400574-7.2168865-8.3913727-9.4218264-13.3647919c-1.5225863-3.4312286-2.5849829-7.1009216-3.1447773-10.9124603
		c-0.4327641-2.9797363-0.5575237-6.0160065-0.3411598-9.0647583l-4.5907125-1.769989l-0.2541313-0.129715l-0.0549555-0.0215302
		c-4.6971655-2.0344391-8.5402975-4.3787842-11.642766-7.1090546c-3.2031937-2.8008881-5.6130028-5.9997406-7.3897533-9.6402435
		c-1.7114906-3.5202942-2.7704659-7.3645782-3.2993774-11.6278687c-0.5266037-4.1499481-0.5472145-8.6971436-0.216362-13.6999817
		c0.0618362-0.8231201,0.1053352-1.7652893,0.1557121-2.768158l0.0057297-0.0137329
		c0.0698051-1.5077209,0.1064529-2.1007385,0.1236076-2.6845856c0.1477127-3.2833252,0.2976646-6.7406616,0.6239395-10.1155701
		c0.2289772-2.2930603,0.5266037-4.5586548,0.9513321-6.6960144l-0.1499481-0.0263367l0.937603-3.2180634
		c0.6800117-2.3434448,1.4951248-4.6662598,2.4681873-6.9432983c0.9685211-2.263298,2.0549545-4.4178391,3.2673016-6.4430084
		c1.2593021-2.1041641,2.6433983-4.0789719,4.1785965-5.9484482c1.5408936-1.8820724,3.2283478-3.6450806,5.0646324-5.3027802
		c2.7383919-2.4601898,7.0440531-5.211174,11.8717079-7.9518738c3.8877814-2.2083435,8.3331041-4.5380249,12.5597563-6.7120285
		c-0.9959822-3.4687881-1.7859061-7.0165634-2.3182399-10.6101379c-0.5346398-3.5466232-0.8311322-7.1287613-0.9044124-10.7520828
		c-4.6010013-0.7510071-9.531703-1.5981598-14.1235685-2.536911c-5.4893599-1.1413727-10.5036478-2.4350204-13.9128981-3.9564667
		c-2.261013-1.0165939-4.4018097-2.1774445-6.4510365-3.4939728c-2.0492249-1.3176842-3.983963-2.767025-5.798481-4.3606033
		c-1.8282509-1.600441-3.5328903-3.3119316-5.1287422-5.1424866c-1.6050377-1.8488808-3.1047401-3.8019257-4.493412-5.8385582
		c-1.7664452-2.6307831-3.3142204-5.7046051-4.7143173-8.9135094c-1.339447-3.0726852-2.5575256-6.3388329-3.7069168-9.4515934
		c-0.37323-1.0223064-0.7475777-1.9976921-1.02005-2.7418137c-0.3583145-0.937603-0.6651306-1.7584457-0.9101105-2.3651962
		c-1.8648949-4.6971645-3.245533-9.0337124-4.0251503-13.1058207c-0.8002319-4.2232103-0.9891357-8.21175-0.4373436-12.0892258
		c0.5678329-4.0011168,1.8797836-7.7778692,4.0549583-11.4298258c2.1236038-3.5603523,5.0772438-6.9925213,8.963871-10.3994656
		l0.0538025-0.0595341l0.1133347-0.0847206l0.0377693-0.0171547l3.830555-3.0933151
		c-1.8774757-4.6239033-2.9261436-9.6141205-3.0543633-14.713131c-0.1304893-5.3405609,0.7590065-10.7978859,2.7921944-16.0708809
		c2.0331917-5.2730331,5.0314789-9.9026299,8.718895-13.7869835c3.8397102-4.0331955,8.3915024-7.2157745,13.3645649-9.4218292
		s10.3880415-3.4424438,15.9552765-3.5809631c5.3393936-0.1305237,10.7978697,0.7590027,16.0708828,2.7910385
		c1.8225374,0.7029343,3.597002,1.5306244,5.317646,2.4979935c1.0681086,0.5872879,2.1007395,1.2249527,3.0898561,1.8935089
		l3.7859058-3.0623627l0.1121826-0.0847168l0.1179123-0.0984573c4.1316414-3.089859,8.1029911-5.2661438,12.0342884-6.595253
		c4.028595-1.3714828,7.9930801-1.8717804,12.05373-1.5855789c3.8912201,0.2701721,7.75383,1.2787628,11.7114525,2.949028
		c3.8671684,1.6187668,7.813343,3.859169,11.9941978,6.6536713c0.723526,0.4865265,1.493988,0.9753647,2.2862015,1.4882431
		c1.0864182,0.7063522,1.6920319,1.0841599,2.2919159,1.4756622c2.7830429,1.7756042,5.7000122,3.6199188,8.4693222,5.5981522
		c2.8700485,2.0492249,5.5603485,4.1888695,7.7400818,6.451004c1.6668472,1.7298317,3.2604218,3.6061897,4.7647171,5.5924225
		l0.0045776-0.0137291c1.4447479,1.9313126,2.7578506,3.9553146,3.9621964,6.0972633
		c1.1814423,2.1179085,2.2026138,4.3170853,3.0703812,6.586132c0.8620529,2.2815933,1.555809,4.627327,2.0767059,7.0485954
		c0.7944946,3.7424088,1.0303192,9.0589027,0.9914017,14.7967339c-0.0320511,4.8940716-0.2484207,9.9724674-0.4831085,14.6444435
		c1.3909454,0.328547,2.752121,0.6937428,4.0984344,1.1001639c2.137352,0.6319394,4.2564163,1.3531775,6.3434143,2.1579845
		c2.0869904,0.8047721,4.1419296,1.6920304,6.1499252,2.658246c1.2650146,0.6159031,2.5197449,1.2593017,3.7767334,1.9358902
		c2.9753723-3.6153436,6.2106247-7.5294676,9.4710617-11.1791182c3.8236694-4.2793198,7.5534668-8.0674973,10.6673584-10.3021679
		c1.9976959-1.4504757,4.0869751-2.7235069,6.2575531-3.8362846c2.1522522-1.1035862,4.3857727-2.0480709,6.6971588-2.8196545
		c2.2770233-0.7681923,4.6090088-1.3875198,7.0234222-1.84659c2.4533386-0.4762611,4.8757629-0.7899246,7.2901764-0.9604874
		c3.1356354-0.2140923,6.5660706,0.0056953,10.068634,0.413269c3.3944855,0.397234,6.7993774,0.9753704,10.0353088,1.5351982
		c0.7075043,0.1133366,1.409729,0.2404022,2.6888275,0.4453068c0.8435059,0.1339474,1.7287903,0.2827797,2.6996918,0.417881
		c4.9743347,0.7349682,9.4035034,1.72295,13.3559723,3.1196232c4.0551605,1.4195576,7.5897675,3.2775726,10.6603851,5.6759586
		c3.1883087,2.507143,5.8045502,5.5454683,7.8699036,9.2661114c2.0172882,3.6382275,3.4999237,7.9175472,4.4937439,12.9673309
		l0.021286,0.1511021l0.0597687,0.1351013l0.7499542,4.8116541c1.1817932,0.1682558,2.3560333,0.3972321,3.5611725,0.6697054
		c1.9053192,0.4476118,3.7954102,1.0165949,5.6180573,1.7183733c5.2730103,2.0331898,9.901947,5.0325766,13.7861938,8.7188768
		c4.0330505,3.8397083,7.2165527,8.3914833,9.4222717,13.3645649c2.205719,4.9741974,3.4422302,10.3880234,3.5813293,15.9552574
		c0.1253357,5.3542938-0.7589111,10.7978706-2.791748,16.0708809c-2.0328674,5.2741547-5.0319214,9.9026489-8.7187805,13.7869873
		c-3.5175629,3.6931686-7.6447296,6.6891479-12.1396027,8.8551331l0.7616425,4.8643188l0.0171661,0.0389252l0.0266724,0.1385193
		l0.0009155,0.0801315c0.5933533,5.1344833,0.4785309,9.661087-0.337265,13.7251663
		c-0.8393707,4.1671143-2.3881836,7.8522797-4.6667175,11.1928482c-2.1940308,3.2455368-5.0107269,6.0755157-8.4396667,8.6685104
		c-3.3110352,2.4945602-7.2503357,4.7956314-11.7805939,7.0119858c-0.5943909,0.2987976-1.3868256,0.6960449-2.2618103,1.1425171
		c-0.6769257,0.3457489-1.6343384,0.8403168-2.597229,1.3474579c-2.940918,1.535202-6.0307617,3.1241913-9.0925751,4.5174255
		c-3.1967773,1.4516296-6.4072876,2.691452-9.4771118,3.4413147c-2.4016876,0.5930176-4.8054504,1.0246124-7.2497559,1.3119659
		c-2.4111938,0.2850494-4.8243561,0.4098358-7.253418,0.3686218c-2.4097137-0.0503693-4.8214874-0.2610168-7.2245636-0.660553
		c-2.4028625-0.3983917-4.7691803-0.9753876-7.1275024-1.7401276c-3.5477753-1.1608276-8.1384735-3.5534821-12.9684448-6.4063721
		c-4.0388947-2.3720551-8.2575378-5.0692444-12.1716614-7.6004181c-2.4968414,2.6651306-5.16539,5.1516571-7.9621735,7.4298401
		c-2.8448639,2.3228455-5.8316803,4.4315796-8.9364166,6.3514404c1.6439514,4.3571472,3.3417206,8.9902039,4.7750244,13.3141632
		c1.7160645,5.2489777,3.0566559,10.1441956,3.4241333,13.7537994c0.2495728,2.4613495,0.3102417,4.9135284,0.1934814,7.3302307
		c-0.1156311,2.4155579-0.4213104,4.8231049-0.8952484,7.2134705c-0.4602203,2.3148041-1.1013184,4.6410675-1.9026794,6.9684753
		c-0.8070984,2.3421783-1.7424011,4.6023712-2.8173828,6.8091278c-2.742981,5.6225128-7.3874817,11.2467499-11.6519165,16.378952
		l-0.0652466,0.0866699l-0.0057297,0.0138397c-1.0795517,1.3095551-2.1247787,2.5687408-3.4332886,4.2217255
		c-3.1127548,3.9298096-6.1808472,7.2857208-9.3554306,10.0088806c-3.2546997,2.8044586-6.6204376,4.9428406-10.2518005,6.4035187
		c-3.7606964,1.5065765-7.6942825,2.2592926-11.94841,2.1852112c-4.1270523-0.0727997-8.5540466-0.9006195-13.4023361-2.5455933
		l-0.0549393-0.0214081l-0.2747574-0.0740814l-4.5918503-1.769989c-1.8855095,2.4051361-4.0159988,4.5723877-6.3376808,6.4900665
		c-2.9730797,2.4492035-6.2243614,4.4561768-9.6553612,5.9779816c-4.9730606,2.2057037-10.3880424,3.442215-15.9552574,3.5813141
		C28.0069942,250.1430511,22.5485172,249.253418,17.2755222,247.2205658z M207.6350708,30.2670059
		c-1.0146484,1.0154419-1.942627,2.0961456-2.7785797,3.2272301c-0.8251801,1.1047401-1.5797272,2.3159523-2.2616882,3.5878296
		c-0.3001709,0.57127-0.5649567,1.0921631-0.7859192,1.5821342c-0.2155609,0.4762459-0.4439545,1.0269012-0.6853943,1.6531143
		c-1.4160156,3.6737022-2.0388031,7.444725-1.9453888,11.1401787c0.0976563,3.8087883,0.9532928,7.5592003,2.492157,11.0291367
		c0.8240204,1.8832207,1.8513947,3.6542473,3.0180664,5.2707253c1.1667938,1.6153259,2.5176697,3.1276245,4.0496674,4.5013962
		l0.0952454,0.0847244l0.1091003,0.0892944l0.0502472,0.0354767c0.4311371,0.3743515,0.825882,0.7177963,1.1950836,1.0040054
		c0.3690796,0.2862015,0.7884216,0.6079025,1.2549438,0.9318848l0.0642242,0.0400543l0.1144714,0.0767059l0.2653809,0.1820221
		l0.0139618,0.0057297l0.013855,0.0045776c0.9019928,0.6033249,1.8339844,1.1711578,2.820694,1.679451
		c0.944931,0.4922638,1.9530487,0.9444733,3.0104065,1.3520279c3.6730194,1.4161301,7.4441528,2.0389023,11.1398315,1.9450226
		c3.8091431-0.0972977,7.5588531-0.9524841,11.0286713-2.4922562c3.4698181-1.5386276,6.6211548-3.7435303,9.2504425-6.5013962
		c2.544693-2.6628265,4.6143951-5.8763275,6.0357971-9.5626259c1.4160156-3.6737022,2.0387878-7.4447098,1.9453735-11.1401787
		c-0.0976563-3.8087921-0.9532776-7.5592003-2.4921417-11.0279846c-1.5388489-3.4699173-3.7438812-6.6215935-6.5017395-9.2512264
		c-2.667984-2.5300465-5.8758545-4.6135979-9.562851-6.0354595c-3.6730194-1.4161339-7.4441376-2.0389194-11.1398315-1.9450436
		c-3.809021,0.0973167-7.5588531,0.9524841-11.0286713,2.49226c-1.6578064,0.7349682-3.2086945,1.6073265-4.6611176,2.597578
		C210.2769623,27.8491611,208.8928833,28.9939747,207.6350708,30.2670059z M190.2213135,33.0305862l-2.171936-13.9736004
		c-6.57547-2.5506401-11.7137299-4.4361525-16.5617828-4.4189806c-5.0234375,0.0125952-10.1567841,2.0927229-17.0680237,7.62675
		l-3.285614,2.968502c1.4367371,1.9919643,2.7830353,4.0137119,3.9999695,6.0801086
		c1.7080688,2.8643227,3.2238007,5.8133507,4.5723877,8.8264999c4.2060394,9.4836311,6.6330566,19.7686424,7.0337372,30.2951927
		c0.3583221,9.3107834-0.8792114,18.8207321-3.8751831,28.1658401l3.8385468,1.7355423
		c8.1911469,3.1253357,13.6764069,3.5306015,18.4479828,2.0137329c4.6034088-1.4527664,8.9171753-4.8082123,14.4083862-9.2271957
		l-2.1773224-13.9598541c-1.4290619-1.5580978-2.7626495-3.2386856-3.9731903-5.031456
		c-1.3911743-2.0709763-2.575592-4.2209244-3.5556641-6.4052353c-2.205719-4.9730606-3.4422302-10.3880386-3.5813293-15.9541206
		c-0.1306152-5.3405495,0.7590179-10.7990227,2.7918701-16.0720367c0.182251-0.4728012,0.4215088-1.0520744,0.7228241-1.750412
		C189.9382019,33.6407585,190.0700836,33.3396721,190.2213135,33.0305862z M213.086792,89.7881241
		c-0.3757324-0.1453857-0.7374878-0.2839127-1.1077271-0.4430313l0.8436127,5.4389954l0.3163147,2.0400772l0.2503662,1.6302032
		l-1.2747498,1.0269012l-1.5983887,1.2856293c-0.6030884,0.4865341-1.1492767,0.8666077-1.6526489,1.136795l0.0844879,0.1121826
		l-0.0739441,0.0675507l-0.1125488,0.0847244c-7.5908051,6.1339111-13.3529968,10.8001556-20.3518066,12.9123383
		c-7.0951996,2.1556778-15.0217743,1.5764084-26.6198883-2.9112625l-0.0057068,0.0137482l-0.1808929-0.0687027l-0.1476746-0.0732574
		l-3.4447479-1.5523758c-0.8265533,1.6473999-1.6989136,3.2444-2.6067505,4.8128052
		c-0.897522,1.5397797-1.8397064,3.0303116-2.8265228,4.4716339c3.4699249,2.2323837,7.1161499,4.5483551,10.5528717,6.5769653
		c4.1396484,2.4430161,7.9095306,4.4395676,10.5082397,5.2821732c1.7435608,0.5758209,3.4855042,0.991394,5.2419891,1.285614
		c1.7566071,0.2930756,3.5335846,0.4510651,5.3449097,0.4785309c1.792099,0.0354767,3.6239014-0.0732727,5.4986572-0.29422
		c1.8415375-0.2163544,3.7366638-0.572403,5.6800995-1.0543823c2.3492737-0.5804138,4.9257965-1.5844116,7.5496979-2.7944794
		c2.7533875-1.2558594,5.5293427-2.6937408,8.1650391-4.0595093c0.7787018-0.4029617,1.5379486-0.7967911,2.5093079-1.2856293
		c0.7733307-0.3892288,1.6290741-0.8265533,2.6143036-1.3096619c3.6220703-1.767601,6.7451324-3.5683899,9.3460236-5.5054169
		c2.4776154-1.8259583,4.4361572-3.7561188,5.849884-5.8476868c1.342865-1.9908447,2.2727966-4.2369614,2.7555695-6.8162308
		c0.511734-2.6948929,0.5697784-5.7893143,0.1593628-9.3668518l-0.4462585-2.9043961
		c-2.9743347,0.4189987-5.9998474,0.5151672-9.0710297,0.273613
		C220.9116974,92.1659164,216.9545441,91.2786789,213.086792,89.7881241z M201.006485,18.8577919
		c0.1863861-0.1511192,0.3728638-0.3033752,0.5592499-0.4556465c1.6582642-1.3577366,3.428833-2.5930023,5.2924652-3.6965895
		l0.0053864-0.0137482l0.1457214-0.0869923l0.0192413-0.0091715l0.2088165-0.1270828l0.0193481-0.0080004l0.2473907-0.1454077
		l0.0192413-0.0080004l0.1210022-0.0652628l0.0247192-0.0228834l0.3298187-0.1923275l0.0193481-0.0080004l0.082428-0.0481081
		l0.0192413-0.0091543l0.1789398-0.090416l0.1788025-0.0904522l0.0192413-0.0091534l0.0385742-0.017189l0.0192413-0.0080004
		l0.3577423-0.1820211l0.0192413-0.0080357l0.0579376-0.0263081l0.0192261-0.0080347l0.3384094-0.1739864l0.0193481-0.0080357
		l0.1542053-0.0686855l0.0192261-0.0080004l0.178833-0.0916052l0.0193329-0.0080004l0.3330383-0.1591377l0.0193481-0.0091534
		l0.0770416-0.0343428c0.1403503-0.0732632,0.3277588-0.1454077,0.550415-0.2667437
		c0.4873505-0.2278242,0.4101868-0.1934805,0.545166-0.2530136c2.0240326-0.8975296,4.1304779-1.6359215,6.2997894-2.2060575
		c1.1757202-0.3136635,2.3770905-0.5701008,3.5902557-0.7727346l-0.4164886-2.7338147l-0.0148773-0.085875
		c-0.6984558-3.5775416-1.6906586-6.5162616-3.003418-8.9569902c-1.2614746-2.3240044-2.813385-4.1843262-4.6899567-5.6588392
		c-1.999649-1.5695419-4.4492035-2.8025007-7.3581696-3.7961769c-3.0395966-1.0269012-6.5632172-1.7950945-10.5998383-2.3915377
		c-0.7878571-0.1121826-1.7201843-0.2644377-2.7081604-0.4373055c-0.4967346-0.0789928-1.7234039-0.2965097-2.9694214-0.5048742
		c-2.8472595-0.4911079-5.8443909-1.0074415-9.0086517-1.3794851c-2.8731384-0.3411579-5.6442719-0.5300617-8.0460968-0.3537712
		c-2.003418,0.138525-3.9163971,0.3755035-5.7446594,0.7258148c-1.8820801,0.3617725-3.6542511,0.8128433-5.3279724,1.3817911
		c-1.6931763,0.5781364-3.3348389,1.2719135-4.9249878,2.0812979c-1.5764008,0.8139601-3.115036,1.7389507-4.5998535,2.8128071
		c-2.2610016,1.6370745-5.3233795,4.7715807-8.5895386,8.4338093c-2.6181793,2.9387548-5.5019684,6.3972311-8.2380829,9.7217598
		c1.4035492,1.0841627,2.7407074,2.1751385,4.0148621,3.305069c1.3611908,1.1963453,2.6868896,2.4419165,3.9713593,3.7527151
		l3.1379395-2.8334198l0.0492249-0.0458021l0.1614227-0.1293373l0.0686951-0.0526848
		c19.5385284-15.7366056,29.1694946-11.9907732,47.7862244-4.733779l0.0053711-0.014883l-0.0053711,0.014883l0.4173889,0.1602559
		c0.5565033,0.2140932,1.1129913,0.4293046,1.6834564,0.6491275l1.9199677,0.7406979l1.544342,0.5952911l0.2503662,1.6302271
		l0.31633,2.0400372L201.006485,18.8577919z M-10.9086409-11.1717911l0.3388538,0.0343428l0.1351004,0.0205774l0.0755692,0.0126123
		c0.5632181,0.0732632,1.0898571,0.1167593,1.5557766,0.1522551c0.4648008,0.0354967,0.9834042,0.0595331,1.5592346,0.0583801
		l0.193481-0.0057297l0.1282187,0.001153c2.0572262,0.0103064,4.0732441-0.2037868,6.0228643-0.6182089
		c1.9633507-0.4098454,3.904953-1.0520563,5.7755814-1.8808994c3.4687829-1.5386572,6.620461-3.7435627,9.2500935-6.5014133
		c2.5449276-2.6628227,4.614748-5.8763218,6.0354595-9.5626221c0.2415543-0.6262093,0.4418983-1.1883106,0.6078854-1.7000656
		c0.1648674-0.5117226,0.3239861-1.0898571,0.4842606-1.7149143c0.3480244-1.4000969,0.5964432-2.7899246,0.7269669-4.1625252
		c0.1339302-1.3864021,0.1659851-2.7968063,0.0961647-4.2300949l-0.0091724-0.2266693l0.0057297-0.0137291
		c-0.107605-1.7515984-0.3537521-3.4768219-0.7681751-5.1379318c-0.3938084-1.6702995-0.968504-3.3302574-1.6874542-4.9501801
		c-1.5386219-3.4699326-3.7435265-6.6204414-6.5013952-9.2501106c-2.6674166-2.5311775-5.8763213-4.6147156-9.5488739-6.0308456
		c-3.67257-1.4161377-7.4435749-2.0389175-11.1401815-1.9450455c-3.8087893,0.0972977-7.5580463,0.9536362-11.0279808,2.4922638
		c-3.4699364,1.53862-6.6215973,3.7435265-9.2512646,6.5013771c-2.5300274,2.6685524-4.6135979,5.8763199-6.0354233,9.5626221
		c-1.4161339,3.6737213-2.0389214,7.4447441-1.9450455,11.1401978c0.0972977,3.8087883,0.95364,7.5591984,2.49226,11.0291348
		c1.5386238,3.4699001,3.7435284,6.6204433,6.501379,9.2500763c2.6685524,2.5311813,5.8763218,4.614749,9.5626221,6.0354595
		c1.0715504,0.413269,2.122489,0.7544279,3.1528139,1.0245953C-13.0540123-11.5358686-11.9870739-11.3160458-10.9086409-11.1717911z
		 M-3.1410782,1.8424246l-10.9844856,8.8849154c1.0978584,6.9764853,2.0492258,12.3445101,4.4853783,16.511631
		c2.518568,4.3273926,6.8562851,7.7091656,15.0268097,10.8917446l4.022882,1.294796
		c4.0526323-8.9375629,9.5202608-16.8173084,16.0353889-23.4789772C32.8071899,8.4136419,41.5100632,2.4205608,50.9948463-1.7866141
		c3.0074234-1.3337172,6.1247597-2.4968376,9.3130493-3.4722419c2.2839165-0.7017779,4.6445198-1.3107986,7.0474815-1.8225198
		l-0.4430542-4.4052672C65.5167999-20.2226925,63.0955162-25.21525,59.3806-28.5970039
		c-3.5821152-3.2673016-8.642189-5.3142204-15.2420387-7.84198l-11.0039444,8.8940697
		c-0.0961647,0.3308525-0.2003441,0.6422119-0.2987976,0.9398746c-0.2404175,0.7063541-0.4567833,1.3096809-0.6388054,1.7824821
		c-2.0331879,5.272995-5.0325947,9.9026279-8.718895,13.7869854c-3.8408604,4.0320358-8.3914833,7.2157688-13.364563,9.4218264
		C7.9155169-0.6395298,5.599565,0.1458174,3.1782787,0.7468374C1.0718265,1.2769005-1.0357788,1.646673-3.1410782,1.8424246z
		 M-21.9183159-0.8100919c-3.8545914-1.4859724-7.3771763-3.499702-10.5219879-5.9106994l-0.0148849-0.0045772
		c-2.4235382-1.8786287-4.6158676-3.9850807-6.5391464-6.2930145l-2.2804718,1.8534393
		c-2.7063522,2.3766193-4.7395439,4.7086248-6.1694069,7.0497484c-1.3783684,2.249589-2.1923294,4.5254502-2.5334854,6.9021049
		c-0.3617401,2.5139914-0.1854477,5.2501121,0.4109955,8.2609768c0.6410942,3.1871567,1.7469864,6.6181545,3.2318077,10.3548164
		c0.4144211,1.0383606,0.7464256,1.9175663,1.0589714,2.7258148c0.383503,0.9948292,0.6754379,1.8110962,0.9959831,2.6376514
		c1.0372086,2.780735,2.1213341,5.6908588,3.3279533,8.4899197c1.1379662,2.6433792,2.367466,5.1321983,3.7195244,7.1390648
		c1.1173172,1.6611252,2.288475,3.1837311,3.5019722,4.5941353c1.2421112,1.4218636,2.5266037,2.7315254,3.8786278,3.9083939
		c1.3611794,1.1963272,2.7841949,2.2724533,4.2838974,3.2329597c1.4985504,0.9616394,3.0818214,1.8282661,4.7475433,2.5655212
		c2.4979572,1.107029,6.626174,2.1716995,11.3347988,3.1402206c3.909512,0.8036537,8.1659307,1.5340462,12.236887,2.2083435
		c0.2495718-1.7263718,0.5518112-3.4630699,0.9067006-5.2123451c0.3651958-1.7767334,0.7967892-3.5603523,1.2844739-5.3210869
		L1.3477234,50.348175l-0.1591202-0.0446472l-0.1808859-0.0698395l0.0057296-0.0137291
		c-11.6084232-4.459053-17.8728256-9.3519897-21.6861916-15.7114372c-3.7504082-6.2724171-4.907835-13.5900631-6.4166908-23.2328472
		l-0.0263424-0.1384897l-0.0091534-0.0996056l-0.0091534-0.0194597l0.138525-0.0263424
		c-0.1785965-0.5323334-0.3468895-1.1722736-0.4533405-1.9324312l-0.321701-2.0263419l-0.2564354-1.6164618l1.2799129-1.0406313
		l1.6038857-1.2993746l4.2770138-3.465359C-21.1673107-0.5204647-21.5428123-0.6658722-21.9183159-0.8100919z
		 M26.0756989-65.6958313c0.7624454,0.965065,1.4676476,1.9564667,2.1419468,2.9833679
		c1.2260952,1.8786659,2.2861862,3.8534393,3.1894455,5.8637466c0.0858574,0.1923256,0.1705799,0.385807,0.2484188,0.5586739
		c0.1018944,0.2312508,0.1877518,0.4247284,0.2415543,0.5735626l0.0091705,0.0194588l0.0709743,0.1865997l0.0034237,0.0331879
		l0.0721283,0.1877518l0.0137482,0.0057297l0.0709724,0.1865997l0.0091553,0.0194588l0.0686836,0.1545601l0.0080185,0.0194588
		l0.1259308,0.3365822l0.0034409,0.0331917l0.028614,0.0904503l0.169426,0.4327316l0.0080185,0.0194588l0.1465416,0.4075394
		l0.0080185,0.0194588l0.0125771,0.0526848l0.0709915,0.1877518l0.0091553,0.0183067l0.0709724,0.1877518l0.0091553,0.0194588
		l0.0366478,0.1099129l0.0091553,0.0194588l0.0858574,0.2735901l0.0091515,0.0183449l0.077858,0.2541313l0.0080185,0.0194588
		l0.0412064,0.1431007l-0.0057297,0.0137291c0.6410942,2.0698395,1.124218,4.1728668,1.4413261,6.2930527
		c0.0366287,0.2381287,0.0721245,0.4762573,0.108757,0.7132339l4.2758789-3.4653587l1.6038857-1.2993736l1.2798958-1.0406303
		l1.5443535,0.5952911l1.9210052,0.740696c0.570118,0.2198257,1.1402206,0.4396133,1.6828613,0.649128l0.4178619,0.1602554
		l0.0045776-0.0137291l-0.0045776,0.0137291c18.6501541,7.1264725,28.3169556,10.8207703,32.2413864,35.5865479l0.0148697,0.0858402
		l0.0332031,0.2037868l0.0068665,0.0663805l0.4235916,4.2072096c1.8454437-0.1041813,3.6645355-0.137372,5.4756317-0.111064
		c1.7172165,0.0229187,3.4459,0.0984516,5.1951752,0.2450123c0.2094955-4.3136625,0.3880768-8.7990408,0.4189987-12.7349291
		c0.0434952-4.9215317-0.1133347-9.2809963-0.704071-12.0170803c-0.3800735-1.7927895-0.8803558-3.5203171-1.5214462-5.1734276
		c-0.6365204-1.6668396-1.3875198-3.2833023-2.2541504-4.8482666c-0.8586121-1.5455055-1.8694763-3.0692444-3.0211563-4.599865
		c-1.1207733-1.4871254-2.3800583-2.9467583-3.771019-4.394928c-1.6805878-1.7344093-3.843132-3.463089-6.2014465-5.1390839
		c-2.5952911-1.847744-5.1631165-3.4767838-7.6027145-5.0245934c-1.06353-0.6823158-2.1190414-1.3439865-2.540329-1.6187706
		c-0.8437271-0.5483627-1.6359406-1.062355-2.3010864-1.4939728c-3.3932152-2.2667389-6.5197029-4.0640717-9.4630165-5.3416748
		c-2.8231163-1.2169647-5.4653435-1.9473495-8.0010986-2.1259537c-2.3812141-0.1671371-4.7807541,0.1706009-7.2752838,1.0463638
		c-2.6055984,0.9135666-5.319952,2.4396133-8.2380943,4.6227493l-0.0686855,0.0526886L26.0756989-65.6958313z
		 M22.7557297,128.2137909l-2.7692947,2.0011292c-6.7841749,5.5351868-9.8511133,10.0903778-10.9112215,14.9546967
		l0.0137472,0.0057373c-1.0257654,4.7337952-0.2884912,10.1166992,0.8070955,17.0588531l13.2305975,5.1001434
		c3.8362675-0.8700562,7.8167896-1.2054901,11.8121929-0.9593506c4.1716957,0.2495728,8.3777351,1.152832,12.4681511,2.7292328
		s7.808773,3.7458344,11.0726318,6.3468475c3.1276436,2.499115,5.8534393,5.4195404,8.1121445,8.6399078l13.2306137,5.1012878
		c5.4722061-4.410965,9.6507721-7.914093,12.0491562-12.1029663c2.4957047-4.3594513,3.2810516-9.7938843,1.9622116-18.4372253
		l-0.6822968-3.2031708c-5.967926,0.6399384-12.052597,0.6273346-18.1418533-0.0744171
		c-6.8082123-0.7864838-13.604969-2.4327393-20.2414474-4.9902496c-6.6788406-2.5746765-12.8436699-5.9427185-18.4406548-9.9541473
		C31.28689,136.841095,26.7522869,132.7277985,22.7557297,128.2137909z M96.5263672,141.9675903l0.4670715-0.0915985
		c0.7567291-0.139679,1.2947998-0.2518616,1.6050339-0.3079529c0.6239243-0.1270752,1.1482391-0.2449951,1.5878525-0.3468781
		L100.558403,141.125l0.3010712-0.0755615l0.3205643-0.0847168l0.3193893-0.0835724l0.0332108-0.0034332l0.0148773,0.0045929
		c1.8763428-0.4739532,3.7389526-1.0349274,5.5855484-1.6817474c1.7893448-0.6204834,3.6027298-1.342865,5.428688-2.1419525
		c8.2941818-3.6897125,15.8739929-8.9661713,22.2093964-15.6163864
		c6.0972748-6.4075165,11.0852203-14.1212769,14.4750061-22.9134369c3.3943787-8.8070526,4.8849182-17.853363,4.6513824-26.7004776
		c-0.2312622-9.18256-2.2930603-18.1762161-5.9782104-26.4841118c-3.6760101-8.2895927-8.9661865-15.8739796-15.6175385-22.2093906
		c-6.406395-6.0972614-14.1258621-11.0714779-22.9180222-14.4612684c-8.7933121-3.3897901-17.853363-4.8849163-26.6959-4.6651278
		c-9.1814117,0.2312474-18.1750641,2.2930503-26.4829788,5.9782324c-8.2953186,3.689724-15.8739777,8.9661608-22.2093735,15.6163893
		c-6.0984135,6.4075203-11.0852242,14.1212616-14.4750137,22.9145889c-3.3897915,8.79216-4.8849173,17.8522148-4.6525345,26.6993294
		c0.2312651,9.1825409,2.2942219,18.1761932,5.9793682,26.484108c7.2065983,16.250618,20.6295414,29.7674332,38.535553,36.6706619
		c6.0663605,2.3388519,12.2254639,3.7698669,18.358223,4.3605957
		C84.0902481,143.3424988,90.4141998,143.0631714,96.5263672,141.9675903z M14.9893188,117.9333725
		c-0.8540325-1.3520279-1.690877-2.7452621-2.4842424-4.1705627c-1.0028467-1.7927704-1.9164133-3.5672379-2.7361031-5.3371201
		c-3.5306039,1.8191071-7.2214808,3.7675781-10.7028589,5.7504044c-4.111011,2.3296814-7.6404796,4.5643692-9.6702452,6.3869095
		c-1.3497181,1.2215195-2.5987129,2.5140076-3.7252197,3.9015274c-1.1402369,1.3829269-2.1659842,2.841423-3.0715151,4.3617325
		c-0.9467907,1.5844269-1.7870579,3.2260742-2.5025673,4.9158173c-0.7155075,1.6897583-1.3566017,3.5203247-1.9278889,5.4573517
		l-0.0103073,0.0274506c-1.3600254,4.68573-1.6439228,11.1447601-1.8969345,17.0245209l-0.0057297,0.0137482l-0.0045776,0.0137329
		c-0.0915699,2.1854401-0.1843262,4.2919159-0.2827797,5.7080383c-0.2701664,4.0984344-0.272438,7.7103271,0.0916042,10.8700104
		c0.3457375,3.0417633,1.0349026,5.6885834,2.1465263,7.9873505c1.042902,2.1442413,2.5128727,4.0526428,4.4968014,5.7446899
		c2.002305,1.730957,4.5277567,3.263855,7.6542273,4.6445007l0.278203,0.1076202l2.9078355,1.1207581l0.0377665-0.0973053
		l0.0057297-0.0137329l0.0744157-0.1946259l0.0057297-0.0137329l0.0480733-0.1259308l0.0114594-0.0274811l0.1476784-0.3422852
		l0.0103064-0.0274811l0.0789924-0.1625671l0.0045767-0.0137329l0.0892639-0.1889038l0.0057297-0.0137329l0.1637144-0.3846588
		l0.0057297-0.0137329l0.0263424-0.0698395l0.0056949-0.0137329c1.8649333-4.0915527,4.3136802-7.7492371,7.2066154-10.9009094
		c1.6805885-1.829422,3.5042789-3.491684,5.4516106-4.9787903l-5.1344881-1.978241l-1.9198542-0.7406921l-1.5443521-0.5953064
		l-0.2507248-1.6302185l-0.3159697-2.0400543l0.0057297-0.0137329c-0.3823671-2.448761,0.0091536,0.0995941-0.2976451-1.8408661
		l-0.0572443-0.3892365c-1.5283332-9.6347504-2.6857238-16.9523926-1.0394957-24.0845795
		c1.6737233-7.200882,6.1075869-13.7698059,15.7434711-21.5614243l0.1431017-0.1213379l0.1866159-0.1511154L14.9893188,117.9333725z
		 M116.0809174,149.570282c-1.8099442,0.7567291-3.6599579,1.4493408-5.548912,2.0801239
		c-1.5580826,0.5174561-3.1528168,1.0051575-4.7532578,1.427597l0.6262131,2.8940887l0.0263214,0.1373749l0.0389175,0.1911621
		l-0.0057068,0.0137482c1.9244308,12.2964478,0.8185349,20.1796265-2.7945023,26.6489716
		c-3.5718155,6.4063721-9.3370895,11.0391998-16.9420853,17.1686401l-1.7595825,1.4149933l-1.6038895,1.2994843l-1.279892,1.0406342
		l-1.5306244-0.5900421l-1.919838-0.7402344l-5.1344833-1.9791565c0.4453201,2.4091492,0.6765671,4.8790741,0.6983337,7.3489075
		c0.0240402,4.2917786-0.6170578,8.6474609-1.9748077,12.9178314l-0.0057297,0.0139771l-0.0274811,0.0696106l-0.0606689,0.2001038
		l-0.0103073,0.0278168l-0.061821,0.200119l-0.00457,0.0139618l-0.061821,0.200119l-0.0057297,0.0139618l-0.0641098,0.1669159
		l-0.0102921,0.0278168l-0.1202164,0.3531799l-0.0114441,0.0278168l-0.0480881,0.1252441l-0.0102921,0.0278168l-0.1121979,0.29216
		l2.9078369,1.1210022l0.278183,0.1072693c3.2501297,1.0613556,6.1510849,1.6203613,8.7910233,1.6952362
		c2.6113052,0.0641174,4.9822159-0.3643951,7.1894226-1.2394867c2.366333-0.9573059,4.654808-2.4564209,6.9524536-4.4790802
		c2.3915176-2.0985565,4.813942-4.7762909,7.3657303-7.9956055c0.872345-1.102005,2.2220764-2.7388611,3.6164627-4.4067383
		l0.0057297-0.0139618l0.0400543-0.0642242l0.0549622-0.0588379c3.740097-4.519043,7.8339539-9.4607391,9.9724655-13.8461914
		c0.8906631-1.8143005,1.6382294-3.5876007,2.2335358-5.3391724c0.6044617-1.7332458,1.0829926-3.5134277,1.4459-5.3233795
		c0.3491592-1.7355347,0.5678253-3.5054169,0.6502457-5.294754c0.0824356-1.7904968,0.0377808-3.5809784-0.1419525-5.393219
		c-0.2724686-2.6937561-1.385231-6.6868591-2.8505859-11.1344604
		C118.8788376,157.1523743,117.4672852,153.2691803,116.0809174,149.570282z M5.8651557,219.9049835
		c1.53864,3.4698181,3.7435441,6.6210327,6.5013957,9.2504272c2.6685705,2.5307312,5.8763227,4.6144104,9.548892,6.030426
		c3.6725521,1.4160156,7.4447269,2.0388031,11.1264343,1.9400024c3.8088074-0.0976563,7.5580635-0.9532928,11.0279999-2.492157
		c3.412674-1.5131989,6.5277176-3.6679688,9.1356049-6.3701935c2.5094299-2.6123505,4.5746765-5.7313843,6.0148468-9.2994232
		l-0.0137329-0.0053864l0.0045776-0.0139771l0.0251884-0.0224304l0.074398-0.1947327l0.0652657-0.1670227l0.1224861-0.3199768
		l0.0217667-0.0556488l0.1236229-0.3199768l0.016037-0.0417786c1.2547073-3.5436554,1.7813301-7.1917114,1.645092-10.776001
		c-0.1408119-3.697876-0.9971352-7.3201752-2.476223-10.6551361c-1.5386391-3.4699249-3.7435455-6.6215973-6.5013962-9.2500916
		c-2.6685715-2.5311737-5.8763199-4.6147461-9.548893-6.0308685c-3.6737061-1.4161377-7.444725-2.0389099-11.1264324-1.9404602
		c-3.8088074,0.0984497-7.5592155,0.9536285-11.0279999,2.4922638c-3.3348351,1.4790955-6.4017897,3.5889893-8.9879265,6.2357941
		c-2.507144,2.5655212-4.5655055,5.6233215-6.0148463,9.0918732l-0.0160189,0.0417938l-0.1236415,0.3199615L5.4495983,197.43573
		l-0.1225061,0.3199768l0.0137477,0.0053711c-0.269032,0.6957092,0.0228834-0.1027985-0.1488314,0.3425293l0.0034413,0.0330963
		l-0.0045767,0.0139618l-0.0148835-0.0053864c-1.3222578,3.5971222-1.9049709,7.3040314-1.7847703,10.9301147
		C3.4885361,212.8041534,4.3517227,216.492981,5.8651557,219.9049835z"/>
	<path id="XMLID_31_" class="st0" d="M82.2906189,77.6210632c1.801918,1.9576187,5.1115799,12.1510468,5.9163895,15.993042
		c1.0967255,5.2810135,2.2049026,11.317627,0.6662827,17.6278305c-3.2318192,13.3599701-17.7205658,19.3129959-27.741127,18.9821396
		c0.0721283-12.5814819-17.5465469-29.4732132,10.5929642-46.3363037
		c3.2615738,5.7160492,10.254097,21.1962128,8.4281158,28.6271973c-0.9124146,3.6908722-2.535759,5.5420456-5.2707291,7.6198807
		l-1.9072571,1.4229965c9.5191269-0.1499634,12.6913986-10.3697128,11.3382416-19.5041809
		c-1.4550705-9.8625793-6.0938416-17.6438675-7.1264725-21.7651825
		C79.4468918,78.6983261,80.5905685,78.3411484,82.2906189,77.6210632z"/>
	<path id="XMLID_30_" class="st0" d="M80.3776245,71.1471405c-3.4653549,3.393219-38.5710487,16.7715149-48.4038544-4.7738647
		c-1.9530449-4.3010674-4.4556122-10.8264999-4.3525829-16.3158951
		c13.6965523,0.0377808,28.7726059-17.5934868,46.3832626,10.5941162
		c-4.2976227,2.4819527-12.8150406,6.0056763-18.1647568,7.5717926c-9.5408745,2.7773132-13.2569389,1.473381-19.4652519-6.2575531
		C36.2439346,71.6313858,47.077301,74.5769882,56.3479881,73.165451c3.9026642-0.5895767,7.689724-1.7504272,11.0394402-2.935318
		c3.8923569-1.3920746,6.840271-3.0680847,10.3342209-4.2140503C78.3936615,67.5054932,79.7010345,69.9588165,80.3776245,71.1471405
		z"/>
	<path id="XMLID_29_" class="st0" d="M141.2404785,96.7840881c-7.93927-0.216362-14.9535446,5.7091827-24.9603729,5.3027802
		c-10.5070877-0.4384766-18.6032104-9.9037781-21.2030792-16.2597885
		c5.7744446-1.9610596,11.1768112-5.2798767,18.0605774-7.2604141c8.8024597-2.519722,13.8705521-1.5718155,19.449234,6.2999115
		c-0.3125305-9.6771088-10.2815781-12.7532196-19.9117355-11.1928329c-4.3995132,0.717804-7.2672806,1.8969574-11.045166,2.949028
		c-3.687439,1.0246124-6.8871841,3.0669556-10.3674316,4.2174988c-0.7166443-1.6657028-2.1236191-3.9026642-2.1819992-6.1945801
		c8.243782-2.1911697,20.8012543-8.8562851,33.3243637-5.6908722
		C135.6034241,72.317131,141.8609619,87.2592316,141.2404785,96.7840881z"/>
	<path id="XMLID_28_" class="st0" d="M97.3403244,62.9193573c-2.2678757-3.1115875-6.4143829-13.7869873-7.6107254-18.2277145
		c-2.4407349-9.0909538-1.8751907-13.8739967,6.1865768-19.3645096
		c-9.7240524,0.3102398-12.6066742,10.2735558-11.1733704,19.9037247
		c1.5935745,10.6662292,4.9776382,14.6559029,7.1138535,21.343895c-1.5431976,0.811676-3.3623123,1.7561417-5.1447754,2.7315292
		c-3.9530411-3.922142-8.9432983-24.4314651-6.6651077-33.7800102c1.8122253-7.4367104,6.721199-12.3353577,11.47332-14.5471439
		c4.6410751-2.1740036,10.5402985-4.7097607,16.2460403-4.3789082
		C108.0283051,30.1399231,125.1272354,45.6017685,97.3403244,62.9193573z"/>
</g>
</svg>
